<svg width="696" height="19" viewBox="0 0 696 19" fill="none" xmlns="http://www.w3.org/2000/svg">
<path d="M0.5 6.5H19H33L45 13L68.5 6.5L85.5 13L107.5 6.5L126.5 13L152.5 6.5L163.5 13L193 6.5L211 13L236 6.5L263 16.5L287 6.5L320.5 13L336 6.5L357.5 13L386 6.5L396 16.5L429.5 6.5L467 16.5L495.5 6.5L520 13L549.5 2L600.5 13L622.5 2L654.5 16.5L695.5 6.5" stroke="url(#paint0_linear_7_27)" stroke-width="3"/>
<defs>
<linearGradient id="paint0_linear_7_27" x1="348" y1="2" x2="348" y2="16.5" gradientUnits="userSpaceOnUse">
<stop stop-color="#DC24D5"/>
<stop offset="1" stop-color="#A30EEF"/>
</linearGradient>
</defs>
</svg>
