<svg width="77" height="72" viewBox="0 0 77 72" fill="none" xmlns="http://www.w3.org/2000/svg">
<path d="M38.5 4L46.3035 22.3521C47.0238 24.0462 47.3838 24.8932 47.9354 25.6075C48.4241 26.2406 49.0217 26.7949 49.7045 27.2483C50.4746 27.7598 51.3877 28.0939 53.2143 28.762L73 36L53.2143 43.238C51.3877 43.9061 50.4746 44.24 49.7045 44.7517C49.0217 45.205 48.4241 45.7593 47.9354 46.3925C47.3838 47.1069 47.0238 47.9538 46.3035 49.648L38.5 68L30.6966 49.648C29.9762 47.9538 29.6161 47.1069 29.0646 46.3925C28.5757 45.7593 27.9781 45.205 27.2956 44.7517C26.5255 44.24 25.6123 43.9061 23.7859 43.238L4 36L23.7859 28.762C25.6123 28.0939 26.5255 27.7598 27.2956 27.2483C27.9781 26.7949 28.5757 26.2406 29.0646 25.6075C29.6161 24.8932 29.9762 24.0462 30.6966 22.3521L38.5 4Z" stroke="url(#paint0_linear_8_7)" stroke-width="7" stroke-linecap="round" stroke-linejoin="round"/>
<defs>
<linearGradient id="paint0_linear_8_7" x1="49.3059" y1="58.4673" x2="7.46487" y2="13.8356" gradientUnits="userSpaceOnUse">
<stop stop-color="#DC24D4"/>
<stop offset="1" stop-color="#8000FF"/>
</linearGradient>
</defs>
</svg>
